@startuml
skinparam classAttributeIconSize 0

class Region {
  - id_region: int
  - nazev: string
  - popis: string
  + pridejOblast(oblast: Oblast): void
  + odeberOblast(oblast: Oblast): void
  + ziskejOblasti(): List<Oblast>
  + aktualizujPopis(popis: string): void
}

class Oblast {
  - id_oblast: int
  - nazev: string
  - popis: string
  + pridejLokalitu(lokalita: Lokalita): void
  + odeberLokalitu(lokalita: Lokalita): void
  + ziskejLokality(): List<Lokalita>
  + aktualizujPopis(popis: string): void
}

class Lokalita {
  - id_lokalita: int
  - nazev: string
  - gps: string
  - popis: string
  - hodnoceni: float
  - navstevnost: float
  + pridejSkalu(skala: Skala): void
  + odeberSkalu(skala: Skala): void
  + ziskejSkaly(): List<Skala>
  + aktualizujHodnoceni(hodnoceni: float): void
  + aktualizujNavstevnost(navstevnost: float): void
  + nastavGps(gps: string): void
  + nastavPopis: (popis: string): void
}

class Skala {
  - id_skala: int
  - nazev: string
  - hodnoceni: float
  - podminky_lezeni: string
  - pruvodce_k_sektoru: string
  - gps: string
  - orientace: string
  + pridejCestu(cesta: Cesta): void
  + odeberCestu(cesta: Cesta): void
  + ziskejCesty(): List<Cesta>
  + aktualizujHodnoceni(hodnoceni: float): void
  + nastavOrientaci(orientace: string): void
  + nastavPodminkyLezeni(podminky: string): void
  + nastavNazev (nazev: string): void
}

class Cesta {
  - id_cesta: int
  - nazev: string
  - klasifikace: string
  - delka: float
  - nebezpeci: int
  - sklon: string
  - orientace: string
  - popis: string
  - autor_prvovystupu: string
  - datum_prvovystupu: int
  + nastavNazev: (nazve: string): void
  + nastavKlasifikaci(klasifikace: string): void
  + nastavDelku(delka: float): void
  + nastavNebezpeci(nebezpeci: int): void
  + nastavOrientaci(orientace: string): void
  + aktualizujPopis(popis: string): void
  + pridejTypLezeni(typ: TypLezeni): void
  + odeberTypLezeni(typ: TypLezeni): void
  + pridejTypJisteni(typ: TypJisteni): void
  + odeberTypJisteni(typ: TypJisteni): void
  + pridejTypSlunce(typ: TypSlunce): void
  + odeberTypSlunce(typ: TypSlunce): void
  + pridejFotografii(foto: Fotografie): void
  + odeberFotografii(foto: Fotografie): void
  + ziskejFotografie(): List<Fotografie>
}

class TypLezeni {
  - id_typ_lezeni: int
  - nazev: string
  + prejmenuj(novyNazev: string): void
  + smazTypLezeni(): void
}

class TypJisteni {
  - id_typ_jisteni: int
  - nazev: string
  + prejmenuj(novyNazev: string): void
  + smazTypJisteni(): void
}

class TypSlunce {
  - id_typ_slunce: int
  - nazev: string
  + prejmenuj(novyNazev: string): void
  + smazTypSlunce(): void
}

class Fotografie {
  - id_foto: int
  - url: string
  - popis: string
  - autor: string
  + nastavUrl(url: string): void
  + aktualizujPopis(popis: string): void
  + nastavAutora(autor: string): void
  + smazFotografii(): void
}

Region "1" -- "0..*" Oblast : obsahuje >
Oblast "1" -- "0..*" Lokalita : obsahuje >
Lokalita "1" -- "0..*" Skala : obsahuje >
Skala "1" -- "0..*" Cesta : obsahuje >

Cesta "0..*" -- "0..*" TypLezeni : ma_typ >
Cesta "0..*" -- "0..*" TypJisteni : ma_jisteni >
Cesta "0..*" -- "0..*" TypSlunce : ma_typ_dopadajiciho_slunce >
Cesta "1" -- "0..*" Fotografie : ma_fotky >
@enduml